<svg style="display: none;">

    <symbol id="icon-add" viewBox="0 0 256 256">
         <path fill-rule="evenodd" d="M128,0A128,128,0,1,1,0,128,128,128,0,0,1,128,0Zm0,32a96,96,0,1,1-96,96A96,96,0,0,1,128,32Zm-16,80V64h32v48h48v32H144v48H112V144H64V112h48Z"/>
    </symbol>

    <symbol id="icon-user-alt" viewBox="0 0 256 256">
         <path fill-rule="evenodd" d="M32,256H0c0-51.25,29.917-94.917,75-117-13.167-10.25-27-29.583-27-59a80,80,0,0,1,160,0c0,29.333-16,49.917-27,60,36.333,15.083,75,57.75,75,116H224A96,96,0,0,0,32,256Zm96-128c-27.021,0-48-21-48-48s20.938-48,48-48,48,21.125,48,48A47.5,47.5,0,0,1,128,128Z"/>
    </symbol>

    <symbol id="icon-arrow-left" viewBox="0 0 192 192">
         <path fill-rule="evenodd" d="M24,96c0-3.531,2.031-6.031,4-8L66,50c2.75-2.75,9.5-2.5,12,0s2.813,9.188,0,12L52,88H160c3.906,0,8,4,8,8a8.578,8.578,0,0,1-8,8H52l26,26c2.625,2.625,2.531,9.469,0,12-2.437,2.437-9.187,2.812-12,0L28,104C26.031,102.031,24,99.406,24,96Z"/>
    </symbol>

    <symbol id="icon-burger-menu" viewBox="0 0 192 192">
        <path fill-rule="evenodd" d="M8,48A8,8,0,0,1,8,32H184a8,8,0,0,1,0,16H8Zm0,56A8,8,0,0,1,8,88H184a8,8,0,0,1,0,16H8Zm0,56a8,8,0,0,1,0-16H184a8,8,0,0,1,0,16H8Z"/>
    </symbol>

</svg>
